<?xml version="1.0" standalone="no"?>
<!DOCTYPE svg PUBLIC "-//W3C//DTD SVG 20010904//EN"
 "http://www.w3.org/TR/2001/REC-SVG-20010904/DTD/svg10.dtd">
<svg version="1.0" xmlns="http://www.w3.org/2000/svg"
 width="1037.000000pt" height="545.000000pt" viewBox="0 0 1037.000000 545.000000"
 preserveAspectRatio="xMidYMid meet">

<g transform="translate(0.000000,545.000000) scale(0.100000,-0.100000)"
fill="#000000" stroke="none">
<path d="M325 3172 l-319 -767 -4 -157 -3 -158 221 0 221 0 -7 -22 c-3 -12
-28 -74 -55 -137 l-49 -115 0 -143 0 -143 690 0 690 0 84 108 c47 59 213 271
370 472 l285 365 -2 128 -2 128 -192 0 c-106 0 -195 4 -197 7 -2 4 25 75 60
157 l63 150 1 158 0 157 -215 0 c-139 0 -215 4 -215 10 0 6 23 64 50 130 l50
120 0 160 0 160 -602 0 -603 0 -320 -768z m1415 566 c0 -91 -2 -97 -59 -233
l-58 -140 -325 -3 -325 -2 -145 -208 c-79 -114 -233 -334 -342 -489 l-197
-283 -84 0 c-84 0 -84 0 -76 23 5 12 96 234 204 492 285 687 368 887 378 913
l9 22 510 0 510 0 0 -92z m330 -576 c0 -86 -2 -92 -66 -248 -37 -87 -71 -165
-77 -172 -8 -10 -76 -12 -300 -12 -159 1 -293 -2 -297 -7 -4 -4 -166 -212
-359 -460 l-352 -453 -84 0 -85 0 19 48 c11 26 93 225 183 442 91 217 216 520
279 672 l114 278 513 0 512 0 0 -88z"/>
<path d="M9445 3543 c-308 -49 -513 -211 -601 -475 -32 -96 -29 -148 10 -187
25 -24 34 -26 149 -31 l122 -5 3 -82 3 -83 -106 0 c-118 0 -159 -12 -193 -55
-28 -35 -28 -87 -2 -184 85 -304 306 -481 651 -522 356 -41 670 93 797 339 40
79 67 165 57 183 -4 5 -86 9 -194 9 l-188 0 -12 -27 c-39 -87 -102 -139 -205
-168 -90 -26 -242 -17 -317 19 -67 31 -142 107 -169 171 -23 53 -41 147 -31
157 4 4 263 9 576 10 l570 3 -1 145 c-2 232 -41 378 -138 514 -26 36 -72 86
-104 112 -67 55 -192 117 -283 139 -63 16 -331 29 -394 18z m310 -339 c73 -25
158 -114 179 -184 9 -30 16 -66 16 -82 l0 -28 -365 0 c-299 0 -365 2 -365 13
0 8 6 35 14 61 34 111 124 200 236 231 70 19 216 14 285 -11z"/>
<path d="M3084 3505 c-3 -8 65 -288 151 -622 87 -335 176 -681 199 -771 l41
-162 244 2 245 3 52 185 c29 102 78 277 110 390 l59 205 5 200 5 200 80 0 80
0 5 -200 5 -200 110 -392 110 -393 248 0 c188 0 247 3 247 12 0 7 88 350 195
763 107 413 195 761 195 773 0 22 0 22 -204 22 -113 0 -207 -4 -210 -8 -3 -5
-40 -170 -83 -368 l-78 -359 -5 -230 -5 -230 -85 0 -85 0 -5 220 -5 220 -103
360 c-57 198 -105 368 -108 378 -5 15 -24 17 -208 17 -151 0 -206 -3 -214 -12
-5 -7 -22 -58 -37 -113 -15 -55 -61 -219 -103 -365 l-76 -265 -5 -220 -6 -220
-82 -3 -83 -3 0 195 0 195 -80 383 c-45 211 -85 393 -90 406 -9 22 -11 22
-215 22 -172 0 -207 -2 -211 -15z"/>
<path d="M5666 3498 c-4 -17 36 -120 303 -778 62 -151 144 -355 183 -452 l72
-178 78 0 c43 0 78 -3 78 -7 0 -5 -15 -50 -32 -100 l-33 -93 -245 -2 -245 -3
0 -185 0 -185 270 0 c254 0 274 1 335 22 36 13 90 43 122 67 101 80 53 -27
587 1293 127 314 231 583 231 597 l0 26 -220 0 c-209 0 -220 -1 -230 -20 -6
-11 -60 -158 -120 -327 -59 -170 -125 -353 -146 -408 -36 -97 -37 -105 -43
-270 l-6 -170 -81 -3 -82 -3 -4 163 -5 163 -62 175 c-35 96 -104 291 -154 432
l-91 257 -227 3 c-210 3 -228 2 -233 -14z"/>
<path d="M7620 2735 l0 -785 220 0 220 0 0 450 c0 294 4 467 11 502 24 111 82
188 174 230 44 19 72 23 225 28 l175 5 3 178 2 177 -124 0 c-167 0 -213 -17
-306 -110 -49 -49 -79 -90 -112 -156 -25 -50 -47 -96 -50 -104 -3 -10 -28 -14
-91 -15 -48 -1 -87 -1 -87 2 0 2 25 44 55 94 61 101 95 183 102 247 l6 42
-212 0 -211 0 0 -785z"/>
</g>
</svg>
